<?xml version="1.0" encoding="UTF-8" standalone="no"?>
<svg
   xmlns:dc="http://purl.org/dc/elements/1.1/"
   xmlns:cc="http://creativecommons.org/ns#"
   xmlns:rdf="http://www.w3.org/1999/02/22-rdf-syntax-ns#"
   xmlns:svg="http://www.w3.org/2000/svg"
   xmlns="http://www.w3.org/2000/svg"
   xmlns:sodipodi="http://sodipodi.sourceforge.net/DTD/sodipodi-0.dtd"
   xmlns:inkscape="http://www.inkscape.org/namespaces/inkscape"
   width="700"
   height="700"
   version="1.1"
   id="svg4"
   sodipodi:docname="star-wars-logo.svg"
   inkscape:version="0.92.4 (5da689c313, 2019-01-14)"
   inkscape:export-filename="G:\Users\suitedoalex\sites\star-wars-logo-0.png"
   inkscape:export-xdpi="561.73712"
   inkscape:export-ydpi="561.73712">
  <metadata
     id="metadata10">
    <rdf:RDF>
      <cc:Work
         rdf:about="">
        <dc:format>image/svg+xml</dc:format>
        <dc:type
           rdf:resource="http://purl.org/dc/dcmitype/StillImage" />
        <dc:title></dc:title>
      </cc:Work>
    </rdf:RDF>
  </metadata>
  <defs
     id="defs8" />
  <sodipodi:namedview
     pagecolor="#ffffff"
     bordercolor="#666666"
     borderopacity="1"
     objecttolerance="10"
     gridtolerance="10"
     guidetolerance="10"
     inkscape:pageopacity="0"
     inkscape:pageshadow="2"
     inkscape:window-width="1600"
     inkscape:window-height="837"
     id="namedview6"
     showgrid="false"
     inkscape:zoom="0.32617188"
     inkscape:cx="142.66106"
     inkscape:cy="441.86876"
     inkscape:window-x="-8"
     inkscape:window-y="-8"
     inkscape:window-maximized="1"
     inkscape:current-layer="svg4" />
  <path
     d="m 311.71495,417.7325 h -15.974 c -0.5629,0 -0.967,-0.63505 -0.967,-1.24124 0,-0.21538 8.4999,-27.61924 8.4999,-27.61924 0.3031,-1.02475 0.332,-1.05472 0.4475,-1.05472 h 0.014 c 0.1287,0 0.1443,0.03 0.4463,1.05472 0,0 8.4999,27.40386 8.4999,27.61924 0,0.60619 -0.433,1.24124 -0.9659,1.24124 m 21.5441,-62.70035 a 1.3911207,1.3911207 0 0 0 -1.2269,-0.99588 h -58.6602 a 1.4011128,1.4011128 0 0 0 -1.2268,0.98144 c 0,0 -32.4254,107.04524 -32.4254,107.24842 0,0.53291 0.4185,0.9659 0.967,0.9659 h 38.7748 a 1.0180828,1.0180828 0 0 0 0.6062,-0.73609 l 4.5165,-14.42968 a 0.97478371,0.97478371 0 0 1 0.8804,-0.62173 l 35.7739,-0.0278 c 0.3886,0.0289 0.7361,0.3031 0.8804,0.64949 l 4.6174,14.42968 c 0.072,0.33307 0.3031,0.63506 0.6062,0.75052 l 38.1543,-0.0144 c 0.5329,0 0.9814,-0.40413 0.9814,-0.93815 0,-0.18763 -33.2192,-107.26173 -33.2192,-107.26173 m 110.538,43.70539 -23.8256,0.0144 c 0,0 -0.6339,-0.18763 -0.6339,-0.90928 l -0.014,-12.02048 c 0,-0.72165 0.635,-0.90928 0.635,-0.90928 h 21.8472 c 2.5402,0 7.6772,1.27011 7.6772,7.14323 0,5.87313 -5.6855,6.68138 -5.6855,6.68138 m 114.2318,-9.30707 h 53.985 v -35.3986 h -69.4117 c -6.4926,0 -15.6276,3.34846 -20.8657,7.22983 -5.2381,3.88137 -12.8143,12.7277 -12.8143,24.92138 0,12.19368 7.403,21.67506 7.403,21.67506 3.7948,4.70405 13.3484,14.50296 13.3484,14.50296 0.2165,0.23093 0.3464,0.53291 0.3464,0.88041 0,0.73498 -0.5918,1.32673 -1.3279,1.32673 h -53.4654 c -6.5082,-0.0289 -6.9556,-2.61127 -6.9556,-2.98653 0,-0.66391 0.8082,-1.08247 0.8082,-1.08247 2.4392,-1.16908 7.4164,-5.05156 7.4164,-5.05156 10.5638,-8.2246 11.835,-19.50899 11.835,-25.55532 0,-6.06186 -0.9103,-16.78337 -11.7473,-26.17705 -10.837,-9.39478 -24.5606,-9.65458 -24.5606,-9.65458 h -76.2951 v 108.54739 c 0,0.34528 0.3175,0.61951 0.6639,0.61951 h 42.4697 v -30.44812 c 0,-0.53291 0.8216,0 0.8216,0 l 22.1225,22.22352 c 7.8648,7.95037 20.8668,8.2246 20.8668,8.2246 l 83.6393,-0.0144 c 14.272,0 22.2091,-7.76274 24.3874,-9.92769 2.1649,-2.17939 9.3947,-10.30295 9.3947,-23.76674 0,-13.44935 -6.1473,-20.33279 -8.7741,-23.49251 -2.3371,-2.82887 -11.6597,-12.69994 -13.6081,-14.74943 a 1.0214135,1.0214135 0 0 1 -0.3753,-0.7927 c 0,-0.4774 0.2742,-0.92372 0.6928,-1.05472 m -337.6915,73.79601 c 0.2887,0 0.4907,-0.20206 0.5773,-0.51959 0,0 32.8584,-107.92566 32.8584,-108.0278 0,-0.28866 -0.1732,-0.60507 -0.4474,-0.63394 h -40.5068 c -0.2021,0 -0.332,0.15876 -0.3753,0.37526 0,0.0144 -8.3844,28.06666 -8.3844,28.0811 -0.058,0.23093 -0.1732,0.37526 -0.3753,0.37526 -0.202,0 -0.3752,-0.20207 -0.4041,-0.37526 l -8.7731,-28.09553 c -0.029,-0.18874 -0.1732,-0.36083 -0.3752,-0.36083 l -44.7346,-0.0144 a 0.43299048,0.43299048 0 0 0 -0.2887,0.25979 l -7.8648,28.19656 c -0.043,0.24537 -0.1732,0.3897 -0.3897,0.3897 a 0.38636074,0.38636074 0 0 1 -0.3753,-0.33196 l -8.3412,-28.1677 a 0.39746306,0.39746306 0 0 0 -0.3319,-0.34639 h -43.1758 a 0.64393457,0.64393457 0 0 0 -0.6351,0.64837 c 0,0.0577 0.014,0.1732 0.014,0.1732 l 33.3491,107.8546 c 0.087,0.31753 0.2887,0.51959 0.5774,0.51959 l 35.8605,0.0144 c 0.2153,-0.0289 0.433,-0.27423 0.4896,-0.53402 0.014,0 12.4823,-40.13156 12.4823,-40.13156 0.072,-0.24536 0.1732,-0.38858 0.3753,-0.38858 0.2165,0 0.333,0.17209 0.3897,0.37415 l 12.1648,40.31918 a 0.51625789,0.51625789 0 0 0 0.4907,0.3464 h 36.1492 m -31.1953,-226.46735 c -6.5082,0 -15.6277,3.34735 -20.8657,7.22983 -5.2403,3.88137 -12.8143,12.7277 -12.8143,24.92138 0,12.19368 7.4019,21.67506 7.4019,21.67506 3.7959,4.70405 13.3483,14.57401 13.3483,14.57401 0.2165,0.23093 0.3464,0.53403 0.3464,0.86599 0,0.73608 -0.5918,1.34227 -1.3267,1.34227 h -87.2476 v 38.58722 h 104.867 c 14.2576,0 22.208,-7.76385 24.3873,-9.94213 2.165,-2.16495 9.3804,-10.28963 9.3804,-23.75341 0,-13.44935 -6.1329,-20.40496 -8.7597,-23.56468 -2.3382,-2.82887 -11.6597,-12.6411 -13.6082,-14.67615 a 1.0735944,1.0735944 0 0 1 -0.3752,-0.80825 c 0,-0.47629 0.2742,-0.90928 0.6928,-1.05361 h 50.5066 v 73.79823 h 38.8326 v -73.6106 h 47.1449 v -35.58516 z m 338.6951,44.70682 -23.8245,0.0144 c 0,0 -0.635,-0.18763 -0.635,-0.90928 l -0.014,-12.02049 c 0,-0.72165 0.635,-0.90928 0.635,-0.90928 h 21.8483 c 2.5391,0 7.6761,1.27011 7.6761,7.14324 0,5.87312 -5.6843,6.68137 -5.6843,6.68137 m 31.4295,25.83066 c -6.4948,-0.0289 -6.9556,-2.61126 -6.9556,-2.98652 0,-0.66392 0.8071,-1.08248 0.8071,-1.08248 2.4392,-1.16907 7.4175,-5.05155 7.4175,-5.05155 10.5639,-8.2246 11.834,-19.509 11.834,-25.55532 0,-6.06187 -0.9104,-16.78338 -11.7463,-26.17706 -10.8381,-9.39478 -24.5616,-9.68344 -24.5616,-9.68344 h -76.2952 v 108.57514 c 0,0.34639 0.3186,0.62173 0.665,0.62173 h 42.4686 v -30.4359 c 0,-0.54845 0.8227,0 0.8227,0 l 22.1225,22.20908 c 7.8638,7.95037 20.8657,8.2246 20.8657,8.2246 h 65.2983 v -38.65606 h -52.7427 z m -161.4433,-6.84569 h -15.9751 c -0.5917,0 -0.9659,-0.63505 -0.9659,-1.24124 0,-0.23093 8.4988,-27.61924 8.4988,-27.61924 0.3031,-1.02474 0.3886,-1.05472 0.4475,-1.05472 h 0.014 c 0.058,0 0.1443,0.03 0.4474,1.05472 0,0 8.4988,27.38942 8.4988,27.61924 0,0.60619 -0.3886,1.24124 -0.9659,1.24124 m 21.5008,-62.72922 a 1.330058,1.330058 0 0 0 -1.2268,-0.96701 h -58.6592 c -0.5773,0.0289 -1.068,0.41856 -1.2268,0.95258 0,0 -32.3965,107.07411 -32.3965,107.27617 0,0.53402 0.433,0.96701 0.9659,0.96701 h 38.7759 c 0.3176,-0.0999 0.5474,-0.40413 0.6195,-0.73608 l 4.5176,-14.44412 a 0.98366556,0.98366556 0 0 1 0.8804,-0.60619 h 35.7583 a 1.0613818,1.0613818 0 0 1 0.8949,0.62062 l 4.6186,14.42969 c 0.071,0.33307 0.3019,0.63505 0.605,0.75051 l 38.1543,-0.0144 c 0.534,0 0.967,-0.40413 0.967,-0.95258 0,-0.1732 -33.2481,-107.27617 -33.2481,-107.27617"
     id="path2"
     inkscape:connector-curvature="0"
     style="stroke-width:1.110232;fill:#dba90d;fill-opacity:1"
     inkscape:export-filename="G:\Users\suitedoalex\sites\star-wars-logo-3.png"
     inkscape:export-xdpi="750.36938"
     inkscape:export-ydpi="750.36938" />
  <path
     d="m 69.901432,734.47439 c -4.138147,0 -9.936659,2.12837 -13.267236,4.59699 -3.33199,2.46794 -8.147836,8.09281 -8.147836,15.84602 0,7.75325 4.706434,13.78187 4.706434,13.78187 2.413575,2.99101 8.487387,9.26674 8.487387,9.26674 0.137658,0.14683 0.220255,0.33956 0.220255,0.55063 0,0.46804 -0.37625,0.85348 -0.843594,0.85348 H 5.5813678 v 24.53529 H 72.259973 c 9.065557,0 14.120724,-4.93656 15.506464,-6.3216 1.37655,-1.37656 5.96439,-6.54256 5.96439,-15.10337 0,-8.55162 -3.899547,-12.97429 -5.569786,-14.98336 -1.486691,-1.79872 -7.41368,-8.03772 -8.652572,-9.33169 -0.150226,-0.12866 -0.237276,-0.31614 -0.23861,-0.51392 0,-0.30284 0.174358,-0.57816 0.440494,-0.66993 h 32.114167 v 46.92387 h 24.69132 v -46.80456 h 29.97661 v -22.62646 z m 215.355938,28.42637 -15.14855,0.009 c 0,0 -0.40378,-0.11927 -0.40378,-0.57815 l -0.009,-7.64311 c 0,-0.45886 0.40378,-0.57815 0.40378,-0.57815 h 13.892 c 1.61446,0 4.8808,0.80758 4.8808,4.54195 0,3.73437 -3.61436,4.24829 -3.61436,4.24829 m 19.98416,16.42415 c -4.12968,-0.0183 -4.42265,-1.66033 -4.42265,-1.89894 0,-0.42214 0.51321,-0.68828 0.51321,-0.68828 1.55094,-0.74335 4.71631,-3.21198 4.71631,-3.21198 6.71694,-5.22953 7.52451,-12.4046 7.52451,-16.2491 0,-3.85437 -0.57885,-10.67154 -7.46873,-16.64442 -6.89128,-5.97358 -15.61728,-6.15711 -15.61728,-6.15711 h -48.51151 v 69.0364 c 0,0.22025 0.20261,0.39533 0.42286,0.39533 h 27.00322 V 784.5547 c 0,-0.34872 0.5231,0 0.5231,0 l 14.06636,14.12142 c 5.00011,5.05516 13.26723,5.22954 13.26723,5.22954 h 41.51928 V 779.32641 H 305.242 Z m -102.65251,-4.35246 h -10.15763 c -0.37626,0 -0.61416,-0.40379 -0.61416,-0.78923 0,-0.14684 5.4039,-17.56141 5.4039,-17.56141 0.19273,-0.65158 0.24708,-0.67065 0.28449,-0.67065 h 0.009 c 0.0367,0 0.0919,0.0191 0.28449,0.67065 0,0 5.4039,17.41529 5.4039,17.56141 0,0.38544 -0.24709,0.78923 -0.61416,0.78923 m 13.67103,-39.88576 c -0.0996,-0.35214 -0.41438,-0.60026 -0.78004,-0.61485 h -37.29782 c -0.36707,0.0183 -0.67911,0.26613 -0.78005,0.6057 0,0 -20.59905,68.08198 -20.59905,68.21046 0,0.33956 0.27532,0.61487 0.61416,0.61487 h 24.65531 c 0.20189,-0.0635 0.34803,-0.25696 0.39391,-0.46803 l 2.87243,-9.18415 c 0.0944,-0.22752 0.31359,-0.3784 0.55981,-0.38544 h 22.7366 c 0.24782,0.0167 0.4664,0.16839 0.56897,0.39461 l 2.93668,9.17498 c 0.0452,0.21178 0.19201,0.4038 0.38473,0.4772 l 24.25999,-0.009 c 0.33954,0 0.61486,-0.25696 0.61486,-0.60569 0,-0.11003 -21.14049,-68.21048 -21.14049,-68.21048"
     id="path2-1-3"
     inkscape:connector-curvature="0"
     style="fill:#dba90d;stroke-width:0.70592993;fill-opacity:1"
     sodipodi:nodetypes="scsccssccscsccccccccccscccccssccsccscccsscsccccccccsscsscscccccsscccccccccsc"
     inkscape:export-filename="G:\Users\suitedoalex\sites\star-wars-logo-5.png"
     inkscape:export-xdpi="204.54851"
     inkscape:export-ydpi="204.54851" />
  <path
     d="m 490.46586,774.97422 h -10.15707 c -0.35791,0 -0.61489,-0.40378 -0.61489,-0.78923 0,-0.13695 5.4047,-17.56167 5.4047,-17.56167 0.19271,-0.65158 0.21108,-0.67064 0.28448,-0.67064 h 0.009 c 0.0819,0 0.0917,0.019 0.28378,0.67064 0,0 5.40468,17.42472 5.40468,17.56167 0,0.38545 -0.27531,0.78923 -0.61418,0.78923 m 13.69878,-39.86794 c -0.10323,-0.3526 -0.41378,-0.60465 -0.78008,-0.63324 h -37.29904 c -0.36316,0.0289 -0.67209,0.2761 -0.78005,0.62406 0,0 -20.61769,68.06462 -20.61769,68.19376 0,0.3389 0.26614,0.61418 0.61487,0.61418 h 24.65495 c 0.19811,-0.0825 0.34248,-0.25776 0.38544,-0.468 l 2.87178,-9.17511 c 0.0901,-0.23236 0.31068,-0.38812 0.5598,-0.39537 l 22.74679,-0.0179 c 0.24709,0.0184 0.46804,0.19272 0.55981,0.41298 l 2.936,9.1751 c 0.0459,0.2118 0.19274,0.40385 0.38545,0.47722 l 24.26033,-0.008 c 0.33885,0 0.62406,-0.25693 0.62406,-0.59648 0,-0.1193 -21.12242,-68.20228 -21.12242,-68.20228 m 70.28549,27.79004 -15.14947,0.009 c 0,0 -0.4031,-0.11931 -0.4031,-0.57817 l -0.009,-7.6432 c 0,-0.45887 0.4038,-0.57818 0.4038,-0.57818 h 13.89148 c 1.61519,0 4.88159,0.80759 4.88159,4.54201 0,3.73443 -3.61512,4.24834 -3.61512,4.24834 m 72.63416,-5.91788 h 34.32628 V 734.4701 h -44.13533 c -4.12833,0 -9.9368,2.12911 -13.26742,4.59707 -3.33063,2.46797 -8.14796,8.09289 -8.14796,15.84623 0,7.75335 4.7072,13.78207 4.7072,13.78207 2.41291,2.99107 8.48752,9.22169 8.48752,9.22169 0.13766,0.14684 0.22025,0.33886 0.22025,0.5598 0,0.46734 -0.37627,0.84362 -0.84429,0.84362 h -33.99597 c -4.13822,-0.0183 -4.4227,-1.66039 -4.4227,-1.899 0,-0.42214 0.51392,-0.68827 0.51392,-0.68827 1.55095,-0.74336 4.71568,-3.21203 4.71568,-3.21203 6.71702,-5.2296 7.52532,-12.40478 7.52532,-16.24934 0,-3.85443 -0.57888,-10.67169 -7.46954,-16.64465 -6.89069,-5.97365 -15.6168,-6.13885 -15.6168,-6.13885 h -48.51221 v 69.01975 c 0,0.21956 0.20191,0.3939 0.42216,0.3939 h 27.00432 v -19.36038 c 0,-0.33885 0.5224,0 0.5224,0 l 14.06655,14.13078 c 5.00089,5.05526 13.26815,5.2296 13.26815,5.2296 l 53.18197,-0.008 c 9.07486,0 14.12162,-4.93592 15.50669,-6.31252 1.37658,-1.38578 5.97367,-6.55109 5.97367,-15.11204 0,-8.55175 -3.9088,-12.92858 -5.57905,-14.93769 -1.48602,-1.79874 -7.41379,-8.07526 -8.65271,-9.37842 -0.15131,-0.12357 -0.23892,-0.30868 -0.23861,-0.50404 0,-0.30356 0.17436,-0.58734 0.44051,-0.67063 m -214.72081,46.9231 c 0.18355,0 0.31203,-0.12846 0.36709,-0.3304 0,0 20.893,-68.62439 20.893,-68.68934 0,-0.18354 -0.11016,-0.38472 -0.28449,-0.40309 h -25.75622 c -0.12848,0 -0.21108,0.10101 -0.23859,0.23861 0,0.009 -5.33129,17.84615 -5.33129,17.85534 -0.0366,0.14684 -0.11015,0.23861 -0.23859,0.23861 -0.12848,0 -0.23861,-0.12848 -0.25696,-0.23861 l -5.57835,-17.86451 c -0.0183,-0.12002 -0.11016,-0.22944 -0.2386,-0.22944 l -28.44443,-0.009 c -0.0839,0.023 -0.15187,0.0843 -0.18355,0.16519 l -5.00087,17.92852 c -0.0275,0.15603 -0.11015,0.24779 -0.24778,0.24779 -0.12057,-0.003 -0.22166,-0.0917 -0.23862,-0.21107 l -5.30372,-17.91041 c -0.0131,-0.11238 -0.0994,-0.20236 -0.21107,-0.22025 h -27.4533 c -0.22504,0.004 -0.40538,0.18723 -0.4038,0.41227 0,0.0366 0.009,0.11015 0.009,0.11015 l 21.20502,68.57925 c 0.0551,0.20189 0.18354,0.33038 0.36708,0.33038 l 22.80186,0.008 c 0.13695,-0.0184 0.27531,-0.17441 0.31133,-0.33959 0.009,0 7.93688,-25.51761 7.93688,-25.51761 0.0459,-0.156 0.11016,-0.24707 0.2386,-0.24707 0.13766,0 0.21178,0.10946 0.24779,0.2379 l 7.73497,25.63689 c 0.0461,0.13261 0.17161,0.22113 0.31204,0.22025 h 22.9854"
     id="path2-1"
     inkscape:connector-curvature="0"
     style="fill:#dba90d;stroke-width:0.70593989;fill-opacity:1"
     sodipodi:nodetypes="csscsscscccccsscccccccccsccccccssccccsssccsscsccscccsscscccccsccccccscsccsccccccccccccccccccscccc"
     inkscape:export-filename="G:\Users\suitedoalex\sites\star-wars-logo-5.png"
     inkscape:export-xdpi="204.54851"
     inkscape:export-ydpi="204.54851" />
  <path
     d="m 1041.3273,416.53331 h -15.974 c -0.5629,0 -0.967,-0.63505 -0.967,-1.24124 0,-0.21538 8.4999,-27.61924 8.4999,-27.61924 0.3031,-1.02475 0.332,-1.05472 0.4475,-1.05472 h 0.014 c 0.1287,0 0.1443,0.03 0.4463,1.05472 0,0 8.4999,27.40386 8.4999,27.61924 0,0.60619 -0.433,1.24124 -0.9659,1.24124 m 21.5441,-62.70035 a 1.3911207,1.3911207 0 0 0 -1.2269,-0.99588 h -58.6602 a 1.4011128,1.4011128 0 0 0 -1.2268,0.98144 c 0,0 -32.42542,107.04524 -32.42542,107.24842 0,0.53291 0.4185,0.9659 0.967,0.9659 h 38.77482 a 1.0180828,1.0180828 0 0 0 0.6062,-0.73609 l 4.5165,-14.42968 a 0.97478371,0.97478371 0 0 1 0.8804,-0.62173 l 35.7739,-0.0278 c 0.3886,0.0289 0.7361,0.3031 0.8804,0.64949 l 4.6174,14.42968 c 0.072,0.33307 0.3031,0.63506 0.6062,0.75052 l 38.1543,-0.0144 c 0.5329,0 0.9814,-0.40413 0.9814,-0.93815 0,-0.18763 -33.2192,-107.26173 -33.2192,-107.26173 m 110.538,43.70539 -23.8256,0.0144 c 0,0 -0.6339,-0.18763 -0.6339,-0.90928 l -0.014,-12.02048 c 0,-0.72165 0.635,-0.90928 0.635,-0.90928 h 21.8472 c 2.5402,0 7.6772,1.27011 7.6772,7.14323 0,5.87313 -5.6855,6.68138 -5.6855,6.68138 m 114.2318,-9.30707 h 53.985 v -35.3986 h -69.4117 c -6.4926,0 -15.6276,3.34846 -20.8657,7.22983 -5.2381,3.88137 -12.8143,12.7277 -12.8143,24.92138 0,12.19368 7.403,21.67506 7.403,21.67506 3.7948,4.70405 13.3484,14.50296 13.3484,14.50296 0.2165,0.23093 0.3464,0.53291 0.3464,0.88041 0,0.73498 -0.5918,1.32673 -1.3279,1.32673 h -53.4654 c -6.5082,-0.0289 -6.9556,-2.61127 -6.9556,-2.98653 0,-0.66391 0.8082,-1.08247 0.8082,-1.08247 2.4392,-1.16908 7.4164,-5.05156 7.4164,-5.05156 10.5638,-8.2246 11.835,-19.50899 11.835,-25.55532 0,-6.06186 -0.9103,-16.78337 -11.7473,-26.17705 -10.837,-9.39478 -24.5606,-9.65458 -24.5606,-9.65458 h -76.2951 v 108.54739 c 0,0.34528 0.3175,0.61951 0.6639,0.61951 h 42.4697 v -30.44812 c 0,-0.53291 0.8216,0 0.8216,0 l 22.1225,22.22352 c 7.8648,7.95037 20.8668,8.2246 20.8668,8.2246 l 83.6393,-0.0144 c 14.272,0 22.2091,-7.76274 24.3874,-9.92769 2.1649,-2.17939 9.3947,-10.30295 9.3947,-23.76674 0,-13.44935 -6.1473,-20.33279 -8.7741,-23.49251 -2.3371,-2.82887 -11.6597,-12.69994 -13.6081,-14.74943 a 1.0214135,1.0214135 0 0 1 -0.3753,-0.7927 c 0,-0.4774 0.2742,-0.92372 0.6928,-1.05472 m -337.69152,73.79601 c 0.2887,0 0.4907,-0.20206 0.5773,-0.51959 0,0 32.8584,-107.92566 32.8584,-108.0278 0,-0.28866 -0.1732,-0.60507 -0.4474,-0.63394 h -40.5068 c -0.2021,0 -0.332,0.15876 -0.3753,0.37526 0,0.0144 -8.3844,28.06666 -8.3844,28.0811 -0.058,0.23093 -0.1732,0.37526 -0.3753,0.37526 -0.202,0 -0.3752,-0.20207 -0.4041,-0.37526 l -8.7731,-28.09553 c -0.029,-0.18874 -0.1732,-0.36083 -0.3752,-0.36083 l -44.7346,-0.0144 a 0.43299048,0.43299048 0 0 0 -0.2887,0.25979 l -7.8648,28.19656 c -0.043,0.24537 -0.1732,0.3897 -0.3897,0.3897 a 0.38636074,0.38636074 0 0 1 -0.3753,-0.33196 l -8.3412,-28.1677 a 0.39746306,0.39746306 0 0 0 -0.3319,-0.34639 h -43.1758 a 0.64393457,0.64393457 0 0 0 -0.6351,0.64837 c 0,0.0577 0.014,0.1732 0.014,0.1732 l 33.3491,107.8546 c 0.087,0.31753 0.2887,0.51959 0.5774,0.51959 l 35.8605,0.0144 c 0.2153,-0.0289 0.433,-0.27423 0.4896,-0.53402 0.014,0 12.4823,-40.13156 12.4823,-40.13156 0.072,-0.24536 0.1732,-0.38858 0.3753,-0.38858 0.2165,0 0.333,0.17209 0.3897,0.37415 l 12.1648,40.31918 a 0.51625789,0.51625789 0 0 0 0.4907,0.3464 h 36.1492 m -31.1953,-226.46735 c -6.5082,0 -15.6277,3.34735 -20.8657,7.22983 -5.2403,3.88137 -12.8143,12.7277 -12.8143,24.92138 0,12.19368 7.4019,21.67506 7.4019,21.67506 3.7959,4.70405 13.3483,14.57401 13.3483,14.57401 0.2165,0.23093 0.3464,0.53403 0.3464,0.86599 0,0.73608 -0.5918,1.34227 -1.3267,1.34227 h -87.2476 v 38.58722 h 104.867 c 14.2576,0 22.208,-7.76385 24.3873,-9.94213 2.165,-2.16495 9.3804,-10.28963 9.3804,-23.75341 0,-13.44935 -6.1329,-20.40496 -8.7597,-23.56468 -2.3382,-2.82887 -11.6597,-12.6411 -13.6082,-14.67615 a 1.0735944,1.0735944 0 0 1 -0.3752,-0.80825 c 0,-0.47629 0.2742,-0.90928 0.6928,-1.05361 h 50.5066 v 73.79823 h 38.83262 v -73.6106 h 47.1449 v -35.58516 z m 338.69512,44.70682 -23.8245,0.0144 c 0,0 -0.635,-0.18763 -0.635,-0.90928 l -0.014,-12.02049 c 0,-0.72165 0.635,-0.90928 0.635,-0.90928 h 21.8483 c 2.5391,0 7.6761,1.27011 7.6761,7.14324 0,5.87312 -5.6843,6.68137 -5.6843,6.68137 m 31.4295,25.83066 c -6.4948,-0.0289 -6.9556,-2.61126 -6.9556,-2.98652 0,-0.66392 0.8071,-1.08248 0.8071,-1.08248 2.4392,-1.16907 7.4175,-5.05155 7.4175,-5.05155 10.5639,-8.2246 11.834,-19.509 11.834,-25.55532 0,-6.06187 -0.9104,-16.78338 -11.7463,-26.17706 -10.8381,-9.39478 -24.5616,-9.68344 -24.5616,-9.68344 h -76.2952 v 108.57514 c 0,0.34639 0.3186,0.62173 0.665,0.62173 h 42.4686 v -30.4359 c 0,-0.54845 0.8227,0 0.8227,0 l 22.1225,22.20908 c 7.8638,7.95037 20.8657,8.2246 20.8657,8.2246 h 65.2983 v -38.65606 h -52.7427 z m -161.4433,-6.84569 h -15.9751 c -0.5917,0 -0.9659,-0.63505 -0.9659,-1.24124 0,-0.23093 8.4988,-27.61924 8.4988,-27.61924 0.3031,-1.02474 0.3886,-1.05472 0.4475,-1.05472 h 0.014 c 0.058,0 0.1443,0.03 0.4474,1.05472 0,0 8.4988,27.38942 8.4988,27.61924 0,0.60619 -0.3886,1.24124 -0.9659,1.24124 m 21.5008,-62.72922 a 1.330058,1.330058 0 0 0 -1.2268,-0.96701 h -58.6592 c -0.5773,0.0289 -1.068,0.41856 -1.2268,0.95258 0,0 -32.3965,107.07411 -32.3965,107.27617 0,0.53402 0.433,0.96701 0.9659,0.96701 h 38.7759 c 0.3176,-0.0999 0.5474,-0.40413 0.6195,-0.73608 l 4.5176,-14.44412 a 0.98366556,0.98366556 0 0 1 0.8804,-0.60619 h 35.7583 a 1.0613818,1.0613818 0 0 1 0.8949,0.62062 l 4.6186,14.42969 c 0.071,0.33307 0.3019,0.63505 0.605,0.75051 l 38.1543,-0.0144 c 0.534,0 0.967,-0.40413 0.967,-0.95258 0,-0.1732 -33.2481,-107.27617 -33.2481,-107.27617"
     id="path2-6"
     inkscape:connector-curvature="0"
     style="fill:#000000;fill-opacity:1;stroke-width:1.110232"
     inkscape:export-filename="G:\Users\suitedoalex\sites\star-wars-logo-6.png"
     inkscape:export-xdpi="263.8017"
     inkscape:export-ydpi="263.8017" />
  <path
     d="m 94.947479,-119.49593 c -4.13815,0 -9.93666,2.12837 -13.26723,4.59699 -3.33199,2.46794 -8.14784,8.09281 -8.14784,15.846025 0,7.75325 4.70643,13.78187 4.70643,13.78187 2.41358,2.99101 8.48739,9.26674 8.48739,9.26674 0.13766,0.14683 0.22026,0.33956 0.22026,0.55063 0,0.46804 -0.37625,0.85348 -0.8436,0.85348 h -55.47547 v 24.53529 h 66.6786 c 9.065561,0 14.120731,-4.93656 15.506471,-6.3216 1.37655,-1.37656 5.96439,-6.54256 5.96439,-15.10337 0,-8.55162 -3.89955,-12.97429 -5.56979,-14.98336 -1.48669,-1.79872 -7.41368,-8.03772 -8.65257,-9.33169 -0.15023,-0.12866 -0.23728,-0.31614 -0.23861,-0.51392 0,-0.30284 0.17436,-0.57816 0.44049,-0.66993 h 32.11417 v 46.92387 h 24.69132 v -46.80456 h 29.97661 v -22.626465 z m 215.355901,28.426375 -15.1485,0.009 c 0,0 -0.4038,-0.11927 -0.4038,-0.57815 l -0.01,-7.64311 c 0,-0.45886 0.4038,-0.57815 0.4038,-0.57815 h 13.892 c 1.6145,0 4.8808,0.80758 4.8808,4.54195 0,3.73437 -3.6144,4.24829 -3.6144,4.24829 m 19.9842,16.42415 c -4.1297,-0.0183 -4.4227,-1.66033 -4.4227,-1.89894 0,-0.42214 0.5133,-0.68828 0.5133,-0.68828 1.5509,-0.74335 4.7163,-3.21198 4.7163,-3.21198 6.7169,-5.22953 7.5245,-12.4046 7.5245,-16.2491 0,-3.854375 -0.5789,-10.671545 -7.4688,-16.644425 -6.8912,-5.97358 -15.6172,-6.15711 -15.6172,-6.15711 h -48.5115 v 69.036405 c 0,0.22025 0.2026,0.39533 0.4228,0.39533 h 27.0032 v -19.35194 c 0,-0.34872 0.5231,0 0.5231,0 l 14.0664,14.12142 c 5.0001,5.05516 13.2672,5.22954 13.2672,5.22954 h 41.5193 v -24.57925 h -33.5363 z m -102.65252,-4.35246 h -10.15763 c -0.37626,0 -0.61416,-0.40379 -0.61416,-0.78923 0,-0.14684 5.4039,-17.56141 5.4039,-17.56141 0.19273,-0.65158 0.24708,-0.67065 0.28449,-0.67065 h 0.009 c 0.0367,0 0.0919,0.0191 0.28449,0.67065 0,0 5.4039,17.41529 5.4039,17.56141 0,0.38544 -0.24709,0.78923 -0.61416,0.78923 m 13.67103,-39.885765 c -0.0996,-0.35214 -0.41438,-0.60026 -0.78004,-0.61485 h -37.29782 c -0.36707,0.0183 -0.67911,0.26613 -0.78005,0.6057 0,0 -20.59905,68.081985 -20.59905,68.210465 0,0.33956 0.27532,0.61487 0.61416,0.61487 h 24.65531 c 0.20189,-0.0635 0.34803,-0.25696 0.39391,-0.46803 l 2.87243,-9.18415 c 0.0944,-0.22752 0.31359,-0.3784 0.55981,-0.38544 h 22.7366 c 0.24782,0.0167 0.4664,0.16839 0.56897,0.39461 l 2.93668,9.17498 c 0.0452,0.21178 0.19201,0.4038 0.38473,0.4772 l 24.25999,-0.009 c 0.33954,0 0.61486,-0.25696 0.61486,-0.60569 0,-0.11003 -21.14049,-68.210485 -21.14049,-68.210485"
     id="path2-1-3-5"
     inkscape:connector-curvature="0"
     style="fill:#000000;fill-opacity:1;stroke-width:0.70592993"
     sodipodi:nodetypes="scsccssccscsccccccccccscccccssccsccscccsscsccccccccsscsscscccccsscccccccccsc"
     inkscape:export-filename="G:\Users\suitedoalex\sites\star-wars-logo-7.png"
     inkscape:export-xdpi="204.54849"
     inkscape:export-ydpi="204.54849" />
  <path
     d="m 515.51198,-78.996095 h -10.1571 c -0.3579,0 -0.6149,-0.40378 -0.6149,-0.78923 0,-0.13695 5.4047,-17.56167 5.4047,-17.56167 0.1927,-0.65158 0.2111,-0.67064 0.2845,-0.67064 h 0.01 c 0.082,0 0.092,0.019 0.2837,0.67064 0,0 5.4047,17.42472 5.4047,17.56167 0,0.38545 -0.2753,0.78923 -0.6141,0.78923 m 13.6987,-39.867945 c -0.1032,-0.3526 -0.4137,-0.60465 -0.78,-0.63324 h -37.2991 c -0.3632,0.0289 -0.6721,0.2761 -0.7801,0.62406 0,0 -20.6176,68.064625 -20.6176,68.193765 0,0.3389 0.2661,0.61418 0.6148,0.61418 h 24.655 c 0.1981,-0.0825 0.3425,-0.25776 0.3854,-0.468 l 2.8718,-9.17511 c 0.09,-0.23236 0.3107,-0.38812 0.5598,-0.39537 l 22.7468,-0.0179 c 0.2471,0.0184 0.4681,0.19272 0.5598,0.41298 l 2.936,9.1751 c 0.046,0.2118 0.1928,0.40385 0.3855,0.47722 l 24.2603,-0.008 c 0.3389,0 0.6241,-0.25693 0.6241,-0.59648 0,-0.1193 -21.1225,-68.202285 -21.1225,-68.202285 m 70.2855,27.790045 -15.1494,0.009 c 0,0 -0.4031,-0.11931 -0.4031,-0.57817 l -0.01,-7.6432 c 0,-0.45887 0.4038,-0.57818 0.4038,-0.57818 h 13.8914 c 1.6152,0 4.8816,0.80759 4.8816,4.54201 0,3.73443 -3.6151,4.24834 -3.6151,4.24834 m 72.6342,-5.91788 h 34.3263 v -22.509065 h -44.1354 c -4.1283,0 -9.9368,2.12911 -13.2674,4.59707 -3.3306,2.46797 -8.148,8.09289 -8.148,15.846235 0,7.75335 4.7072,13.78207 4.7072,13.78207 2.413,2.99107 8.4876,9.22169 8.4876,9.22169 0.1376,0.14684 0.2202,0.33886 0.2202,0.5598 0,0.46734 -0.3763,0.84362 -0.8443,0.84362 h -33.9959 c -4.1383,-0.0183 -4.4227,-1.66039 -4.4227,-1.899 0,-0.42214 0.5139,-0.68827 0.5139,-0.68827 1.5509,-0.74336 4.7157,-3.21203 4.7157,-3.21203 6.717,-5.2296 7.5253,-12.40478 7.5253,-16.24934 0,-3.854435 -0.5789,-10.671695 -7.4696,-16.644655 -6.8907,-5.97365 -15.6168,-6.13885 -15.6168,-6.13885 h -48.5122 v 69.019755 c 0,0.21956 0.2019,0.3939 0.4222,0.3939 h 27.0043 v -19.36038 c 0,-0.33885 0.5224,0 0.5224,0 l 14.0666,14.13078 c 5.0008,5.05526 13.2681,5.2296 13.2681,5.2296 l 53.182,-0.008 c 9.0748,0 14.1216,-4.93592 15.5067,-6.31252 1.3765,-1.38578 5.9736,-6.55109 5.9736,-15.11204 0,-8.55175 -3.9088,-12.92858 -5.579,-14.93769 -1.486,-1.79874 -7.4138,-8.07526 -8.6527,-9.37842 -0.1513,-0.12357 -0.2389,-0.30868 -0.2386,-0.50404 0,-0.30356 0.1743,-0.58734 0.4405,-0.67063 m -214.7209,46.9231 c 0.1836,0 0.3121,-0.12846 0.3671,-0.3304 0,0 20.893,-68.624395 20.893,-68.689345 0,-0.18354 -0.1101,-0.38472 -0.2845,-0.40309 h -25.7562 c -0.1285,0 -0.2111,0.10101 -0.2386,0.23861 0,0.009 -5.3313,17.84615 -5.3313,17.85534 -0.037,0.14684 -0.1101,0.23861 -0.2386,0.23861 -0.1284,0 -0.2386,-0.12848 -0.2569,-0.23861 l -5.5784,-17.86451 c -0.018,-0.12002 -0.1101,-0.22944 -0.2386,-0.22944 l -28.4444,-0.009 c -0.084,0.023 -0.1519,0.0843 -0.1835,0.16519 l -5.0009,17.92852 c -0.027,0.15603 -0.1102,0.24779 -0.2478,0.24779 -0.1206,-0.003 -0.2217,-0.0917 -0.2386,-0.21107 l -5.3027,-17.91041 c -0.013,-0.11238 -0.099,-0.20236 -0.2111,-0.22025 h -27.4533 c -0.225,0.004 -0.4054,0.18723 -0.4038,0.41227 0,0.0366 0.01,0.11015 0.01,0.11015 l 21.205,68.579255 c 0.055,0.20189 0.1836,0.33038 0.3671,0.33038 l 22.8019,0.008 c 0.1369,-0.0184 0.2753,-0.17441 0.3113,-0.33959 0.01,0 7.9369,-25.51761 7.9369,-25.51761 0.046,-0.156 0.1101,-0.24707 0.2386,-0.24707 0.1376,0 0.2117,0.10946 0.2478,0.2379 l 7.7349,25.63689 c 0.046,0.13261 0.1716,0.22113 0.3121,0.22025 h 22.9854"
     id="path2-1-32"
     inkscape:connector-curvature="0"
     style="fill:#000000;fill-opacity:1;stroke-width:0.70593989"
     sodipodi:nodetypes="csscsscscccccsscccccccccsccccccssccccsssccsscsccscccsscscccccsccccccscsccsccccccccccccccccccscccc"
     inkscape:export-filename="G:\Users\suitedoalex\sites\star-wars-logo-7.png"
     inkscape:export-xdpi="204.54849"
     inkscape:export-ydpi="204.54849" />
</svg>
